<svg width="118" height="75" viewBox="0 0 118 75" fill="none" xmlns="http://www.w3.org/2000/svg">
<g clip-path="url(#clip0_264_850)">
<g clip-path="url(#clip1_264_850)">
<path d="M82.226 74.9999C81.6939 74.6894 81.6747 74.1788 81.6747 73.6384C81.6806 67.8522 81.6776 62.0675 81.6776 56.2812C81.6776 55.9901 81.6776 55.699 81.6776 55.3199C79.5433 55.9424 77.5153 56.532 75.4874 57.1247C72.5357 57.9876 69.5869 58.8638 66.6278 59.7058C66.1489 59.8431 65.9227 60.0268 65.97 60.5642C66.0262 61.2046 65.9464 61.86 66.0262 62.4974C66.0646 62.8094 66.3292 63.093 66.4977 63.4006C65.1704 63.7768 63.6406 64.2216 62.0989 64.6262C61.96 64.662 61.6599 64.4694 61.5949 64.3157C61.4855 64.0589 61.5062 63.7454 61.4619 63.3707C62.1462 64.0664 63.7854 63.9753 64.3648 63.2707C64.4786 63.1319 64.5466 62.9139 64.5525 62.7303C64.5732 61.9645 64.5614 61.1971 64.5614 60.4343C63.3686 60.391 62.5083 60.8314 62.1019 61.7928C62.0531 61.442 62.0191 61.2449 61.9999 61.0464C61.9792 60.8254 61.9733 60.6045 61.9629 60.4179C62.6946 60.2477 63.4055 60.1133 64.0943 59.9029C64.285 59.8446 64.523 59.5655 64.5378 59.3714C64.5924 58.6847 64.5584 57.9905 64.5584 57.1725C63.577 57.5248 62.4714 57.3785 61.9245 58.7489C61.8491 58.1771 61.7989 57.7935 61.7471 57.4053C63.4735 56.9441 65.1512 56.4962 66.8273 56.0499C65.5118 56.5111 66.1548 57.6173 65.9139 58.6175C70.9039 57.1575 75.7446 55.7423 80.5853 54.3256C80.5853 54.2734 80.5883 54.2211 80.5898 54.1689C77.8701 53.3747 75.1519 52.579 72.4322 51.7848C71.9489 53.4135 71.4123 53.8255 70.2254 53.5046C68.8848 53.1418 68.6557 52.7343 68.9764 51.2922C69.1597 51.7057 69.2957 52.1506 69.5396 52.5238C69.8929 53.0597 70.6925 53.2568 71.1019 52.9328C71.6015 52.5372 71.538 51.9729 71.2704 51.5146C70.8743 50.8354 70.3038 50.2547 69.9269 49.5665C69.5573 48.8902 69.1893 48.1528 69.0858 47.4049C68.9572 46.4778 69.5603 46.0091 70.5063 46.0598C70.6526 46.0673 70.8019 46.0837 70.9453 46.1165C72.144 46.3867 72.2726 46.5913 72.0642 47.8169C71.77 47.4511 71.5099 46.9809 71.1182 46.6972C70.8832 46.5271 70.289 46.5062 70.1308 46.6763C69.9254 46.8973 69.8204 47.4929 69.9742 47.7258C70.7841 48.9559 71.4375 50.3039 73.121 50.713C75.6766 51.3355 78.1834 52.158 80.711 52.894C80.9903 52.9761 81.2741 53.0463 81.6229 53.1388V38.842H51.8986C53.3265 39.8332 54.574 40.7304 55.8584 41.5709C56.2442 41.8231 57.3528 41.4649 57.4932 41.0334C57.5834 40.7573 57.3676 40.3811 57.2937 40.0497C57.2419 39.8183 57.1976 39.5869 57.1503 39.3555C57.406 39.4137 57.7489 39.3868 57.8997 39.5466C58.3328 40.0064 58.6432 40.5602 58.3446 41.232C58.0297 41.9411 57.5006 42.4352 56.7113 42.4233C56.1866 42.4158 55.5746 42.3516 55.1563 42.0739C53.2097 40.7797 51.3163 39.4018 49.3135 37.991C49.6919 37.7208 49.983 37.5074 50.2787 37.2999C51.8528 36.1937 53.4226 35.08 55.0056 33.9858C56.0491 33.2647 57.2035 33.4036 58.0741 34.3231C58.6934 34.977 58.482 36.2504 57.6706 36.6355C57.5257 36.7042 57.3129 36.6251 57.1311 36.6132C57.1503 36.4176 57.1 36.1668 57.202 36.0354C57.4784 35.6757 57.845 35.3562 57.4784 34.871C57.1281 34.4053 56.1201 34.1873 55.6604 34.5008C54.4616 35.3204 53.2836 36.1713 51.943 37.1192C52.3125 37.1536 52.5106 37.1879 52.7086 37.1879C62.501 37.1909 72.2933 37.1879 82.0856 37.2013C82.5615 37.2013 82.8719 37.0759 83.0966 36.6535C83.911 35.1248 84.9013 33.6663 85.5162 32.0615C86.171 30.3522 86.2641 28.5115 85.7365 26.6798C85.4704 25.7573 85.3418 24.7929 85.1837 23.8405C85.1112 23.409 85.1171 22.9642 85.0802 22.4133C82.9237 23.2179 80.773 23.2493 78.6062 23.1538C78.4465 23.1463 78.2234 23.3404 78.1214 23.5001C77.2183 24.9198 76.3403 26.3559 75.4445 27.7801C74.605 29.1161 75.4845 30.8314 77.0808 30.9135C77.2537 30.9225 77.4695 30.7612 77.607 30.6194C77.808 30.4119 77.9558 30.1507 78.1509 29.879C79.0363 30.3089 79.9926 30.5493 80.5144 31.7137C79.935 31.8346 79.4339 31.954 78.9269 32.0391C78.6165 32.0914 78.2559 32.0003 77.9898 32.1272C76.9256 32.6318 76.1511 32.3093 75.4032 31.4688C75.01 31.027 74.4321 30.7403 73.9073 30.4358C73.393 30.1372 73.0944 29.2251 73.356 28.5235C73.8748 27.1381 74.4055 25.7573 74.9228 24.3704C74.9996 24.1644 75.0277 23.9405 75.0809 23.7091C74.2754 23.2627 73.4846 22.8253 72.7323 22.4088C71.0591 23.2239 69.3194 23.9748 67.689 24.9168C67.1407 25.2333 66.6869 25.9872 66.5154 26.6291C66.2908 27.4695 66.3765 28.3966 66.3558 29.2878C66.344 29.77 66.5627 30.0283 67.0904 30.1104C67.8886 30.2358 68.3542 30.8792 68.363 31.6943C68.3704 32.3586 67.9595 32.6691 67.3624 32.3869C66.9736 32.2033 66.6677 31.8346 66.2775 31.654C64.7949 30.9673 65.0773 29.8536 65.3477 28.5817C65.5695 27.5397 65.4024 26.4171 65.5059 25.3408C65.5443 24.9392 65.7882 24.4988 66.0617 24.1868C66.9485 23.1747 67.8945 22.2163 68.8153 21.2325C68.9158 21.125 68.975 20.9727 69.0843 20.8787C69.9416 20.1442 69.9579 19.4306 69.3622 18.4274C68.7872 17.4601 69.1612 16.3196 69.6253 15.3612C70.3067 13.9549 70.2358 12.6845 69.1878 11.4022C67.9595 12.2546 67.321 13.4459 67.1776 14.9193C67.1303 15.403 67.2234 15.8881 66.6588 16.1867C65.9774 16.548 65.367 16.4599 64.9812 15.8568C64.7063 15.4283 64.5688 14.8431 64.5584 14.3251C64.5407 13.519 64.622 12.6979 64.7728 11.9053C64.9974 10.7319 64.5392 9.67645 64.4018 8.56578C64.2318 7.18939 63.2873 5.85778 64.1446 4.28134C63.5578 4.39629 63.0996 4.48586 62.6414 4.57693C62.6118 4.51572 62.5837 4.45302 62.5542 4.39181C62.9193 4.18879 63.2681 3.85589 63.6524 3.80662C64.8378 3.65585 65.3522 2.76463 65.936 1.9152C66.0424 1.75995 66.1696 1.55991 66.3277 1.50617C67.4112 1.14639 68.4975 0.794084 69.5972 0.492531C70.3688 0.282041 71.1625 0.158136 71.9666 -0.00756836C71.9415 0.113351 71.9001 0.31787 71.8528 0.556723C73.6782 0.473124 75.1312 1.46735 76.7527 2.17943C76.5221 2.34663 76.3329 2.48248 76.2235 2.5616C77.1843 3.40207 78.1509 4.24701 79.1191 5.09345C79.0895 5.14122 79.0614 5.18899 79.0319 5.23676C78.8042 5.2084 78.5781 5.17854 78.2189 5.13375C79.0186 6.18471 79.7502 7.1446 80.5351 8.17764C80.2882 8.75836 80.7642 9.17486 83.1321 10.2198C82.8246 10.4512 82.5187 10.6811 82.0309 11.0484C82.8291 11.2917 83.4218 11.4947 84.0263 11.6425C84.1889 11.6828 84.4328 11.6141 84.5658 11.5052C85.7926 10.4856 87.2219 10.0795 88.7621 10.2437C89.9002 10.3646 91.0369 10.6184 92.1366 10.9409C93.3944 11.3096 94.098 12.3636 94.9568 13.307C96.0195 14.4759 96.8738 15.9882 98.6017 16.533C98.315 16.7749 98.0578 16.9913 97.7828 17.2242C98.0075 18.5409 98.2736 19.8277 99.7576 20.4084H98.6431C98.8855 20.9369 99.221 21.3877 99.2831 21.8759C99.3541 22.4372 99.3008 23.0791 99.091 23.5986C98.6653 24.6496 98.8752 26.1006 99.7384 26.8381C100.297 27.3158 100.896 27.7442 101.623 28.3085C100.692 28.4175 99.864 28.516 98.9919 28.6175C99.5107 29.5416 100.464 29.7625 101.565 30.0118C99.357 30.7717 97.5286 30.291 95.7387 29.1759C95.8392 29.4013 95.9382 29.6267 96.0387 29.8521C94.8991 29.8446 93.6826 28.937 93.4639 27.7756C93.3102 26.959 93.3501 26.1021 93.3323 25.2616C93.3131 24.2704 93.3397 23.2777 93.3146 22.2864C93.3072 21.9804 93.1904 21.6773 93.0958 21.2489C92.2563 21.8012 91.4552 22.1954 91.501 23.2896C91.535 24.1017 91.5926 24.9123 91.6015 25.7244C91.6089 26.3917 91.4759 26.9097 90.8831 27.4471C89.6401 28.5757 88.4532 29.761 87.5486 31.2688C87.0268 32.1391 86.8864 32.9527 86.6972 33.8529C86.6144 34.2485 86.2819 34.6516 85.9567 34.9218C85.2561 35.5055 84.7136 36.1086 85.0462 37.1864C85.2812 37.1864 85.5694 37.1864 85.8577 37.1864C93.6812 37.1864 101.506 37.1789 109.33 37.2013C109.998 37.2028 110.537 37.0849 110.925 36.5206C111.672 35.4323 112.692 35.1233 113.978 35.2338C115.243 35.3428 116.526 35.2577 117.903 35.4189C116.896 36.2474 115.889 37.0774 114.796 37.9776C115.851 38.8554 116.863 39.6973 117.997 40.6393C117.682 40.6781 117.511 40.7155 117.338 40.717C115.813 40.7214 114.286 40.7453 112.762 40.699C112.416 40.6886 111.949 40.5229 111.758 40.2646C110.828 39.0047 109.631 38.7375 108.119 38.7524C100.173 38.8255 92.2253 38.7867 84.2791 38.7867H83.3301V53.5016C86.9603 52.4462 90.5787 51.3937 94.3315 50.3024C93.9827 49.3724 93.659 48.5125 93.3176 47.6079C93.7181 47.5004 94.2975 47.3466 94.7927 47.2138C94.7853 48.938 95.5376 50.4622 96.0564 52.07C96.6048 50.2039 97.1547 48.3379 97.703 46.4718C97.771 46.4659 97.8375 46.4584 97.9055 46.4524C98.4982 47.9587 99.091 49.465 99.6837 50.9712C99.7472 50.9727 99.8123 50.9742 99.8758 50.9757C100.083 49.2037 100.971 47.5541 100.848 45.5866C101.138 45.5045 101.627 45.3656 102.071 45.2402C101.895 45.612 101.658 45.9717 101.548 46.3673C100.984 48.3737 100.457 50.3875 99.9128 52.3999C99.8315 52.7014 99.7354 53 99.4546 53.321C98.8604 51.8192 98.2677 50.3159 97.5966 48.617C96.9477 50.6518 96.3609 52.4939 95.7741 54.3376C95.6943 54.342 95.616 54.3465 95.5362 54.351C95.245 53.4314 94.9553 52.5118 94.6375 51.5057C91.5941 52.3969 88.6054 53.2732 85.6167 54.1495C85.6079 54.2047 85.599 54.2599 85.5901 54.3152C90.6082 55.7856 95.6263 57.2561 100.777 58.7653V55.4363C100.857 55.3975 100.939 55.3602 101.018 55.3214C103.068 57.692 105.119 60.0611 107.28 62.5586C107.302 62.2242 107.331 62.0257 107.327 61.8271C107.303 60.7597 107.274 59.6924 107.244 58.625C107.226 57.9547 107.283 57.2456 106.443 56.9456C107.216 57.159 107.989 57.371 108.762 57.5845C108.122 57.6188 108.141 58.092 108.132 58.522C108.094 60.3089 108.066 62.0973 108.03 63.8843C108.025 64.147 107.995 64.4097 107.977 64.6725C107.912 64.7038 107.849 64.7337 107.784 64.765C105.745 62.4347 103.708 60.1044 101.533 57.6158C101.533 58.0488 101.527 58.3234 101.533 58.5996C101.555 59.6177 101.533 60.6403 101.627 61.651C101.673 62.1332 101.945 62.5929 102.108 63.0438C101.512 62.89 100.732 62.6885 99.9512 62.4855C100.61 62.4571 100.708 62.066 100.715 61.5151C100.736 60.0521 100.754 60.0521 99.3629 59.6446C94.333 58.1697 89.3046 56.6948 84.2746 55.2213C83.9731 55.1333 83.6671 55.0601 83.2607 54.9541V55.9185C83.2607 61.8286 83.271 67.7387 83.2414 73.6474C83.24 74.0982 82.9621 74.5461 82.8128 74.9969H82.2216L82.226 74.9999Z" fill="#121B0E"/>
<path d="M0 39.9886H3.29761C3.15128 42.2218 3.00495 44.4312 2.85418 46.7227H9.83814C9.69476 44.4715 9.55434 42.2592 9.41097 40.0095H12.5209C11.9355 45.3135 11.937 50.5728 12.5209 55.9022H9.42132C9.56026 53.5942 9.6992 51.2818 9.84405 48.8918H2.8601C3.00347 51.255 3.14389 53.5674 3.28578 55.9305H0C0 55.8798 0 55.8305 0 55.7813C0.101988 55.4289 0.258665 55.0811 0.297095 54.7213C0.750867 50.3817 0.65627 46.036 0.369521 41.6934C0.338482 41.2187 0.127115 40.7544 0 40.2856C0 40.1856 0 40.0871 0 39.9871V39.9886Z" fill="#121B0E"/>
<path d="M18.8798 15.8464H22.4228C21.7118 18.5559 21.9025 21.2863 21.9069 24.0003C21.9114 26.6964 21.6941 29.4118 22.4435 32.1303H19.1163C19.2582 29.7343 19.4001 27.3532 19.5449 24.9229H12.4294C12.5625 27.3263 12.6955 29.7059 12.83 32.1348H9.53683C10.2567 29.4267 10.0423 26.6949 10.0409 23.9764C10.0379 21.2789 10.2685 18.5619 9.51318 15.8539H12.8418C12.7014 18.1305 12.564 20.3891 12.4206 22.7209H19.4267C19.4489 20.4279 19.5346 18.1394 18.8813 15.8464H18.8798Z" fill="#121B0E"/>
<path d="M55.4458 26.1096C55.3852 28.4175 54.6786 30.2089 52.9567 31.4763C50.3951 33.3603 46.8108 32.4855 45.5249 29.5745C44.4296 27.0934 44.6853 24.6511 46.3969 22.5029C47.7775 20.7712 49.6517 20.1965 51.7609 20.7623C53.8613 21.3265 54.924 22.9104 55.3379 24.984C55.4251 25.4184 55.4251 25.8722 55.4472 26.1096H55.4458ZM47.2513 26.2484C47.2897 26.547 47.3193 27.071 47.4331 27.5756C47.7124 28.8101 48.314 29.8357 49.4699 30.4388C50.8253 31.1464 51.8525 30.8658 52.5132 29.4834C53.4444 27.5338 53.3676 25.5543 52.1674 23.7569C51.7609 23.1478 51.0159 22.682 50.3286 22.37C49.3561 21.9297 48.753 22.1969 48.1086 23.0761C47.4685 23.9509 47.2749 24.9631 47.2498 26.2484H47.2513Z" fill="#121B0E"/>
<path d="M25.08 50.1698C25.0623 52.0672 24.477 53.7257 23.0285 54.9991C20.4551 57.2622 16.5249 56.3411 15.2611 53.148C14.4999 51.2252 14.6314 49.2965 15.5892 47.4677C16.7422 45.2673 19.0332 44.2178 21.3538 44.7538C23.4172 45.23 24.9411 47.2319 25.0786 49.6503C25.0889 49.8234 25.0786 49.9966 25.0786 50.1713L25.08 50.1698ZM22.7993 50.8356C22.7727 50.4892 22.7713 50.1399 22.7151 49.7981C22.483 48.3843 21.8918 47.1975 20.5541 46.5362C19.2652 45.8988 18.3237 46.1749 17.6852 47.4707C16.7776 49.3114 16.887 51.17 17.864 52.9569C18.2808 53.7197 18.9475 54.2258 19.7841 54.49C20.7818 54.8035 21.3375 54.6363 21.9598 53.7869C22.6013 52.9121 22.8097 51.9059 22.7993 50.8356Z" fill="#121B0E"/>
<path d="M33.4682 26.8038H27.2543C27.1819 29.9746 29.6119 31.342 33.01 30.1119C32.9346 31.6421 32.3389 32.2825 30.8845 32.3975C26.836 32.7199 24.2627 29.8268 24.8465 25.6095C25.0165 24.3854 25.4052 23.2479 26.1635 22.2581C27.2514 20.8354 28.6851 20.3055 30.4041 20.6862C32.0803 21.0579 32.9006 22.2925 33.2036 23.8853C33.3765 24.7974 33.378 25.7424 33.4667 26.8038H33.4682ZM31.5082 25.1766C31.6265 23.3688 30.7973 22.1626 29.4803 22.1521C28.1308 22.1417 27.1375 23.4554 27.2262 25.1766H31.5082Z" fill="#121B0E"/>
<path d="M49.8854 50.7041H43.7853C43.871 53.8763 45.8266 54.9766 49.5646 53.9525C49.3134 54.572 49.1123 55.1468 48.8448 55.6887C48.765 55.8499 48.5108 55.9633 48.3157 56.0171C44.551 57.0665 41.3598 54.6123 41.382 50.6802C41.3908 49.0291 41.7574 47.4796 42.8231 46.1674C43.8903 44.8537 45.2545 44.361 46.8982 44.7417C48.4842 45.1089 49.2897 46.251 49.5927 47.7587C49.7804 48.6888 49.7878 49.6561 49.8869 50.7041H49.8854ZM43.7173 49.1217H47.9964C47.9846 48.0916 47.8855 47.1377 47.0253 46.5017C46.4001 46.0405 45.6669 46.042 45.0092 46.4211C44.0056 47.0018 43.8075 48.014 43.7173 49.1217Z" fill="#121B0E"/>
<path d="M57.0911 46.9362C56.4319 46.672 55.8525 46.351 55.2317 46.2152C54.6035 46.0763 53.9635 46.2764 53.6516 46.9078C53.3235 47.5751 53.6043 48.1738 54.1054 48.6485C54.9109 49.4113 55.8067 50.0876 56.5428 50.9116C57.6765 52.1805 57.6114 54.0988 56.3698 55.1946C55.8274 55.6738 55.0632 56.0753 54.3626 56.147C53.4107 56.2455 52.4189 56.0186 51.4537 55.8693C51.2837 55.8424 51.0531 55.52 51.0354 55.317C50.9807 54.6795 51.0162 54.0346 51.0162 53.2151C51.3207 53.4882 51.5069 53.6584 51.6976 53.8241C52.3361 54.3824 53.05 54.7348 53.9221 54.6004C54.9479 54.4407 55.4371 53.3688 54.8267 52.5224C54.5148 52.0895 54.0684 51.7521 53.6738 51.3819C53.1343 50.8758 52.5283 50.4294 52.0509 49.8711C50.6334 48.2096 51.1344 45.9688 53.1047 45.0388C54.1719 44.5342 55.2805 44.4939 56.4156 44.8179C56.9108 44.9597 57.168 45.203 57.1 45.7628C57.0512 46.1674 57.0911 46.5824 57.0911 46.9347V46.9362Z" fill="#121B0E"/>
<path d="M33.8037 53.2403C34.2633 53.615 34.5678 53.9584 34.9462 54.151C35.3941 54.3779 35.8981 54.5466 36.3933 54.6078C36.9978 54.6839 37.5063 54.4018 37.7679 53.8151C38.0177 53.2538 37.8654 52.7328 37.4649 52.3073C37.1279 51.949 36.7377 51.643 36.3755 51.3086C35.8508 50.8249 35.2729 50.3845 34.8161 49.8412C33.4563 48.2214 33.916 46.0359 35.7991 45.0865C36.9017 44.5311 38.0561 44.4789 39.2415 44.8312C39.7116 44.9715 39.9407 45.2014 39.8801 45.7254C39.8328 46.1389 39.8712 46.5629 39.8712 47.1018C39.6214 46.9167 39.4721 46.7465 39.2859 46.6808C38.7656 46.4942 38.2157 46.1912 37.7073 46.2389C37.2491 46.2822 36.6327 46.6345 36.4479 47.0257C36.2809 47.378 36.5056 48.0259 36.7421 48.4334C36.9786 48.841 37.4442 49.1112 37.8078 49.4426C38.263 49.8576 38.7434 50.2487 39.1676 50.6936C40.1062 51.6758 40.387 52.8358 39.8919 54.1196C39.41 55.3676 38.4389 56.0991 37.1456 56.1678C36.1819 56.22 35.2004 56.017 34.2353 55.8662C34.0682 55.8394 33.8406 55.5184 33.8243 55.3169C33.7711 54.6779 33.8051 54.033 33.8051 53.2388L33.8037 53.2403Z" fill="#121B0E"/>
<path d="M35.397 16.5004C36.2735 16.3213 37.252 16.1212 38.1832 15.9316C37.7412 21.3372 37.8314 26.689 38.093 32.117H35.4738C35.7251 26.9547 35.8108 21.797 35.3985 16.5004H35.397Z" fill="#121B0E"/>
<path d="M40.4478 16.5032C41.3198 16.3255 42.3116 16.121 43.2487 15.9299C42.7905 21.3459 42.8674 26.6948 43.166 32.1167H40.5024C40.8321 26.953 40.8941 21.7789 40.4492 16.5017L40.4478 16.5032Z" fill="#121B0E"/>
<path d="M26.8672 44.9074H29.3563V46.5704L29.5041 46.7032C30.5713 45.4716 31.5321 43.9848 33.5378 44.8745C33.4018 45.6164 33.2703 46.342 33.1077 47.2287C31.9681 46.4076 30.8728 46.6838 29.8116 47.2287C29.6209 47.3257 29.4095 47.6154 29.4066 47.8184C29.3888 49.9009 29.3888 51.9849 29.4361 54.0689C29.4494 54.678 29.6283 55.284 29.7362 55.9304H26.9308C27.3121 52.2775 27.355 48.6379 26.8643 44.9088L26.8672 44.9074Z" fill="#121B0E"/>
</g>
</g>
<defs>
<clipPath id="clip0_264_850">
<rect width="118" height="75" fill="white"/>
</clipPath>
<clipPath id="clip1_264_850">
<rect width="118" height="75" fill="white"/>
</clipPath>
</defs>
</svg>
